<?xml version="1.0" encoding="utf-8" standalone="no"?>
<!DOCTYPE svg PUBLIC "-//W3C//DTD SVG 1.1//EN"
  "http://www.w3.org/Graphics/SVG/1.1/DTD/svg11.dtd">
<svg xmlns:xlink="http://www.w3.org/1999/xlink" width="1440pt" height="360pt" viewBox="0 0 1440 360" xmlns="http://www.w3.org/2000/svg" version="1.1">
 <metadata>
  <rdf:RDF xmlns:dc="http://purl.org/dc/elements/1.1/" xmlns:cc="http://creativecommons.org/ns#" xmlns:rdf="http://www.w3.org/1999/02/22-rdf-syntax-ns#">
   <cc:Work>
    <dc:type rdf:resource="http://purl.org/dc/dcmitype/StillImage"/>
    <dc:date>2024-09-30T12:36:01.261107</dc:date>
    <dc:format>image/svg+xml</dc:format>
    <dc:creator>
     <cc:Agent>
      <dc:title>Matplotlib v3.8.4, https://matplotlib.org/</dc:title>
     </cc:Agent>
    </dc:creator>
   </cc:Work>
  </rdf:RDF>
 </metadata>
 <defs>
  <style type="text/css">*{stroke-linejoin: round; stroke-linecap: butt}</style>
 </defs>
 <g id="figure_1">
  <g id="patch_1">
   <path d="M 0 360 
L 1440 360 
L 1440 0 
L 0 0 
z
" style="fill: #ffffff"/>
  </g>
  <g id="axes_1">
   <g id="patch_2">
    <path d="M 70.07 314.5 
L 732.9625 314.5 
L 732.9625 39.12 
L 70.07 39.12 
z
" style="fill: #ffffff"/>
   </g>
   <g id="matplotlib.axis_1">
    <g id="xtick_1">
     <g id="line2d_1">
      <defs>
       <path id="m2b4e925118" d="M 0 0 
L 0 6 
" style="stroke: #262626; stroke-width: 1.25"/>
      </defs>
      <g>
       <use xlink:href="#m2b4e925118" x="134.979227" y="314.5" style="fill: #262626; stroke: #262626; stroke-width: 1.25"/>
      </g>
     </g>
     <g id="text_1">
      <!-- −20 -->
      <g style="fill: #262626" transform="translate(117.56786 336.537422) scale(0.165 -0.165)">
       <defs>
        <path id="DejaVuSans-2212" d="M 678 2272 
L 4684 2272 
L 4684 1741 
L 678 1741 
L 678 2272 
z
" transform="scale(0.015625)"/>
        <path id="DejaVuSans-32" d="M 1228 531 
L 3431 531 
L 3431 0 
L 469 0 
L 469 531 
Q 828 903 1448 1529 
Q 2069 2156 2228 2338 
Q 2531 2678 2651 2914 
Q 2772 3150 2772 3378 
Q 2772 3750 2511 3984 
Q 2250 4219 1831 4219 
Q 1534 4219 1204 4116 
Q 875 4013 500 3803 
L 500 4441 
Q 881 4594 1212 4672 
Q 1544 4750 1819 4750 
Q 2544 4750 2975 4387 
Q 3406 4025 3406 3419 
Q 3406 3131 3298 2873 
Q 3191 2616 2906 2266 
Q 2828 2175 2409 1742 
Q 1991 1309 1228 531 
z
" transform="scale(0.015625)"/>
        <path id="DejaVuSans-30" d="M 2034 4250 
Q 1547 4250 1301 3770 
Q 1056 3291 1056 2328 
Q 1056 1369 1301 889 
Q 1547 409 2034 409 
Q 2525 409 2770 889 
Q 3016 1369 3016 2328 
Q 3016 3291 2770 3770 
Q 2525 4250 2034 4250 
z
M 2034 4750 
Q 2819 4750 3233 4129 
Q 3647 3509 3647 2328 
Q 3647 1150 3233 529 
Q 2819 -91 2034 -91 
Q 1250 -91 836 529 
Q 422 1150 422 2328 
Q 422 3509 836 4129 
Q 1250 4750 2034 4750 
z
" transform="scale(0.015625)"/>
       </defs>
       <use xlink:href="#DejaVuSans-2212"/>
       <use xlink:href="#DejaVuSans-32" x="83.789062"/>
       <use xlink:href="#DejaVuSans-30" x="147.412109"/>
      </g>
     </g>
    </g>
    <g id="xtick_2">
     <g id="line2d_2">
      <g>
       <use xlink:href="#m2b4e925118" x="249.574168" y="314.5" style="fill: #262626; stroke: #262626; stroke-width: 1.25"/>
      </g>
     </g>
     <g id="text_2">
      <!-- 0 -->
      <g style="fill: #262626" transform="translate(244.325106 336.537422) scale(0.165 -0.165)">
       <use xlink:href="#DejaVuSans-30"/>
      </g>
     </g>
    </g>
    <g id="xtick_3">
     <g id="line2d_3">
      <g>
       <use xlink:href="#m2b4e925118" x="364.16911" y="314.5" style="fill: #262626; stroke: #262626; stroke-width: 1.25"/>
      </g>
     </g>
     <g id="text_3">
      <!-- 20 -->
      <g style="fill: #262626" transform="translate(353.670985 336.537422) scale(0.165 -0.165)">
       <use xlink:href="#DejaVuSans-32"/>
       <use xlink:href="#DejaVuSans-30" x="63.623047"/>
      </g>
     </g>
    </g>
    <g id="xtick_4">
     <g id="line2d_4">
      <g>
       <use xlink:href="#m2b4e925118" x="478.764052" y="314.5" style="fill: #262626; stroke: #262626; stroke-width: 1.25"/>
      </g>
     </g>
     <g id="text_4">
      <!-- 40 -->
      <g style="fill: #262626" transform="translate(468.265927 336.537422) scale(0.165 -0.165)">
       <defs>
        <path id="DejaVuSans-34" d="M 2419 4116 
L 825 1625 
L 2419 1625 
L 2419 4116 
z
M 2253 4666 
L 3047 4666 
L 3047 1625 
L 3713 1625 
L 3713 1100 
L 3047 1100 
L 3047 0 
L 2419 0 
L 2419 1100 
L 313 1100 
L 313 1709 
L 2253 4666 
z
" transform="scale(0.015625)"/>
       </defs>
       <use xlink:href="#DejaVuSans-34"/>
       <use xlink:href="#DejaVuSans-30" x="63.623047"/>
      </g>
     </g>
    </g>
    <g id="xtick_5">
     <g id="line2d_5">
      <g>
       <use xlink:href="#m2b4e925118" x="593.358993" y="314.5" style="fill: #262626; stroke: #262626; stroke-width: 1.25"/>
      </g>
     </g>
     <g id="text_5">
      <!-- 60 -->
      <g style="fill: #262626" transform="translate(582.860868 336.537422) scale(0.165 -0.165)">
       <defs>
        <path id="DejaVuSans-36" d="M 2113 2584 
Q 1688 2584 1439 2293 
Q 1191 2003 1191 1497 
Q 1191 994 1439 701 
Q 1688 409 2113 409 
Q 2538 409 2786 701 
Q 3034 994 3034 1497 
Q 3034 2003 2786 2293 
Q 2538 2584 2113 2584 
z
M 3366 4563 
L 3366 3988 
Q 3128 4100 2886 4159 
Q 2644 4219 2406 4219 
Q 1781 4219 1451 3797 
Q 1122 3375 1075 2522 
Q 1259 2794 1537 2939 
Q 1816 3084 2150 3084 
Q 2853 3084 3261 2657 
Q 3669 2231 3669 1497 
Q 3669 778 3244 343 
Q 2819 -91 2113 -91 
Q 1303 -91 875 529 
Q 447 1150 447 2328 
Q 447 3434 972 4092 
Q 1497 4750 2381 4750 
Q 2619 4750 2861 4703 
Q 3103 4656 3366 4563 
z
" transform="scale(0.015625)"/>
       </defs>
       <use xlink:href="#DejaVuSans-36"/>
       <use xlink:href="#DejaVuSans-30" x="63.623047"/>
      </g>
     </g>
    </g>
    <g id="xtick_6">
     <g id="line2d_6">
      <g>
       <use xlink:href="#m2b4e925118" x="707.953935" y="314.5" style="fill: #262626; stroke: #262626; stroke-width: 1.25"/>
      </g>
     </g>
     <g id="text_6">
      <!-- 80 -->
      <g style="fill: #262626" transform="translate(697.45581 336.537422) scale(0.165 -0.165)">
       <defs>
        <path id="DejaVuSans-38" d="M 2034 2216 
Q 1584 2216 1326 1975 
Q 1069 1734 1069 1313 
Q 1069 891 1326 650 
Q 1584 409 2034 409 
Q 2484 409 2743 651 
Q 3003 894 3003 1313 
Q 3003 1734 2745 1975 
Q 2488 2216 2034 2216 
z
M 1403 2484 
Q 997 2584 770 2862 
Q 544 3141 544 3541 
Q 544 4100 942 4425 
Q 1341 4750 2034 4750 
Q 2731 4750 3128 4425 
Q 3525 4100 3525 3541 
Q 3525 3141 3298 2862 
Q 3072 2584 2669 2484 
Q 3125 2378 3379 2068 
Q 3634 1759 3634 1313 
Q 3634 634 3220 271 
Q 2806 -91 2034 -91 
Q 1263 -91 848 271 
Q 434 634 434 1313 
Q 434 1759 690 2068 
Q 947 2378 1403 2484 
z
M 1172 3481 
Q 1172 3119 1398 2916 
Q 1625 2713 2034 2713 
Q 2441 2713 2670 2916 
Q 2900 3119 2900 3481 
Q 2900 3844 2670 4047 
Q 2441 4250 2034 4250 
Q 1625 4250 1398 4047 
Q 1172 3844 1172 3481 
z
" transform="scale(0.015625)"/>
       </defs>
       <use xlink:href="#DejaVuSans-38"/>
       <use xlink:href="#DejaVuSans-30" x="63.623047"/>
      </g>
     </g>
    </g>
   </g>
   <g id="matplotlib.axis_2">
    <g id="ytick_1">
     <g id="text_7">
      <!-- uTP1 -->
      <g style="fill: #262626" transform="translate(19.588125 308.251438) scale(0.165 -0.165)">
       <defs>
        <path id="DejaVuSans-75" d="M 544 1381 
L 544 3500 
L 1119 3500 
L 1119 1403 
Q 1119 906 1312 657 
Q 1506 409 1894 409 
Q 2359 409 2629 706 
Q 2900 1003 2900 1516 
L 2900 3500 
L 3475 3500 
L 3475 0 
L 2900 0 
L 2900 538 
Q 2691 219 2414 64 
Q 2138 -91 1772 -91 
Q 1169 -91 856 284 
Q 544 659 544 1381 
z
M 1991 3584 
L 1991 3584 
z
" transform="scale(0.015625)"/>
        <path id="DejaVuSans-54" d="M -19 4666 
L 3928 4666 
L 3928 4134 
L 2272 4134 
L 2272 0 
L 1638 0 
L 1638 4134 
L -19 4134 
L -19 4666 
z
" transform="scale(0.015625)"/>
        <path id="DejaVuSans-50" d="M 1259 4147 
L 1259 2394 
L 2053 2394 
Q 2494 2394 2734 2622 
Q 2975 2850 2975 3272 
Q 2975 3691 2734 3919 
Q 2494 4147 2053 4147 
L 1259 4147 
z
M 628 4666 
L 2053 4666 
Q 2838 4666 3239 4311 
Q 3641 3956 3641 3272 
Q 3641 2581 3239 2228 
Q 2838 1875 2053 1875 
L 1259 1875 
L 1259 0 
L 628 0 
L 628 4666 
z
" transform="scale(0.015625)"/>
        <path id="DejaVuSans-31" d="M 794 531 
L 1825 531 
L 1825 4091 
L 703 3866 
L 703 4441 
L 1819 4666 
L 2450 4666 
L 2450 531 
L 3481 531 
L 3481 0 
L 794 0 
L 794 531 
z
" transform="scale(0.015625)"/>
       </defs>
       <use xlink:href="#DejaVuSans-75"/>
       <use xlink:href="#DejaVuSans-54" x="63.378906"/>
       <use xlink:href="#DejaVuSans-50" x="124.462891"/>
       <use xlink:href="#DejaVuSans-31" x="184.765625"/>
      </g>
     </g>
    </g>
    <g id="ytick_2">
     <g id="text_8">
      <!-- uTP2 -->
      <g style="fill: #262626" transform="translate(19.588125 251.354744) scale(0.165 -0.165)">
       <use xlink:href="#DejaVuSans-75"/>
       <use xlink:href="#DejaVuSans-54" x="63.378906"/>
       <use xlink:href="#DejaVuSans-50" x="124.462891"/>
       <use xlink:href="#DejaVuSans-32" x="184.765625"/>
      </g>
     </g>
    </g>
    <g id="ytick_3">
     <g id="text_9">
      <!-- uTP3 -->
      <g style="fill: #262626" transform="translate(19.588125 194.45805) scale(0.165 -0.165)">
       <defs>
        <path id="DejaVuSans-33" d="M 2597 2516 
Q 3050 2419 3304 2112 
Q 3559 1806 3559 1356 
Q 3559 666 3084 287 
Q 2609 -91 1734 -91 
Q 1441 -91 1130 -33 
Q 819 25 488 141 
L 488 750 
Q 750 597 1062 519 
Q 1375 441 1716 441 
Q 2309 441 2620 675 
Q 2931 909 2931 1356 
Q 2931 1769 2642 2001 
Q 2353 2234 1838 2234 
L 1294 2234 
L 1294 2753 
L 1863 2753 
Q 2328 2753 2575 2939 
Q 2822 3125 2822 3475 
Q 2822 3834 2567 4026 
Q 2313 4219 1838 4219 
Q 1578 4219 1281 4162 
Q 984 4106 628 3988 
L 628 4550 
Q 988 4650 1302 4700 
Q 1616 4750 1894 4750 
Q 2613 4750 3031 4423 
Q 3450 4097 3450 3541 
Q 3450 3153 3228 2886 
Q 3006 2619 2597 2516 
z
" transform="scale(0.015625)"/>
       </defs>
       <use xlink:href="#DejaVuSans-75"/>
       <use xlink:href="#DejaVuSans-54" x="63.378906"/>
       <use xlink:href="#DejaVuSans-50" x="124.462891"/>
       <use xlink:href="#DejaVuSans-33" x="184.765625"/>
      </g>
     </g>
    </g>
    <g id="ytick_4">
     <g id="text_10">
      <!-- uTP4 -->
      <g style="fill: #262626" transform="translate(19.588125 137.561356) scale(0.165 -0.165)">
       <use xlink:href="#DejaVuSans-75"/>
       <use xlink:href="#DejaVuSans-54" x="63.378906"/>
       <use xlink:href="#DejaVuSans-50" x="124.462891"/>
       <use xlink:href="#DejaVuSans-34" x="184.765625"/>
      </g>
     </g>
    </g>
    <g id="ytick_5">
     <g id="text_11">
      <!-- uTP5 -->
      <g style="fill: #262626" transform="translate(19.588125 80.664661) scale(0.165 -0.165)">
       <defs>
        <path id="DejaVuSans-35" d="M 691 4666 
L 3169 4666 
L 3169 4134 
L 1269 4134 
L 1269 2991 
Q 1406 3038 1543 3061 
Q 1681 3084 1819 3084 
Q 2600 3084 3056 2656 
Q 3513 2228 3513 1497 
Q 3513 744 3044 326 
Q 2575 -91 1722 -91 
Q 1428 -91 1123 -41 
Q 819 9 494 109 
L 494 744 
Q 775 591 1075 516 
Q 1375 441 1709 441 
Q 2250 441 2565 725 
Q 2881 1009 2881 1497 
Q 2881 1984 2565 2268 
Q 2250 2553 1709 2553 
Q 1456 2553 1204 2497 
Q 953 2441 691 2322 
L 691 4666 
z
" transform="scale(0.015625)"/>
       </defs>
       <use xlink:href="#DejaVuSans-75"/>
       <use xlink:href="#DejaVuSans-54" x="63.378906"/>
       <use xlink:href="#DejaVuSans-50" x="124.462891"/>
       <use xlink:href="#DejaVuSans-35" x="184.765625"/>
      </g>
     </g>
    </g>
   </g>
   <g id="patch_3">
    <path d="M 142.041473 301.982727 
L 216.528185 301.982727 
L 216.528185 290.603388 
L 142.041473 290.603388 
z
" clip-path="url(#pa0a4593085)" style="fill: #aec7e8; opacity: 0.5; stroke: #aec7e8; stroke-linejoin: miter"/>
   </g>
   <g id="PathCollection_1">
    <defs>
     <path id="ma765fcf4d2" d="M 0 3.162278 
C 0.838646 3.162278 1.643056 2.82908 2.236068 2.236068 
C 2.82908 1.643056 3.162278 0.838646 3.162278 0 
C 3.162278 -0.838646 2.82908 -1.643056 2.236068 -2.236068 
C 1.643056 -2.82908 0.838646 -3.162278 0 -3.162278 
C -0.838646 -3.162278 -1.643056 -2.82908 -2.236068 -2.236068 
C -2.82908 -1.643056 -3.162278 -0.838646 -3.162278 0 
C -3.162278 0.838646 -2.82908 1.643056 -2.236068 2.236068 
C -1.643056 2.82908 -0.838646 3.162278 0 3.162278 
z
" style="stroke: #aec7e8; stroke-opacity: 0"/>
    </defs>
    <g clip-path="url(#pa0a4593085)">
     <use xlink:href="#ma765fcf4d2" x="142.041473" y="296.293058" style="fill: #aec7e8; fill-opacity: 0; stroke: #aec7e8; stroke-opacity: 0"/>
    </g>
   </g>
   <g id="patch_4">
    <path d="M 249.574168 301.982727 
L 369.898857 301.982727 
L 369.898857 290.603388 
L 249.574168 290.603388 
z
" clip-path="url(#pa0a4593085)" style="fill: #1f77b4; opacity: 0.5; stroke: #1f77b4; stroke-linejoin: miter"/>
   </g>
   <g id="PathCollection_2">
    <defs>
     <path id="mafdd42eb6b" d="M 0 3.162278 
C 0.838646 3.162278 1.643056 2.82908 2.236068 2.236068 
C 2.82908 1.643056 3.162278 0.838646 3.162278 0 
C 3.162278 -0.838646 2.82908 -1.643056 2.236068 -2.236068 
C 1.643056 -2.82908 0.838646 -3.162278 0 -3.162278 
C -0.838646 -3.162278 -1.643056 -2.82908 -2.236068 -2.236068 
C -2.82908 -1.643056 -3.162278 -0.838646 -3.162278 0 
C -3.162278 0.838646 -2.82908 1.643056 -2.236068 2.236068 
C -1.643056 2.82908 -0.838646 3.162278 0 3.162278 
z
" style="stroke: #1f77b4; stroke-opacity: 0"/>
    </defs>
    <g clip-path="url(#pa0a4593085)">
     <use xlink:href="#mafdd42eb6b" x="249.574168" y="296.293058" style="fill: #1f77b4; fill-opacity: 0; stroke: #1f77b4; stroke-opacity: 0"/>
    </g>
   </g>
   <g id="patch_5">
    <path d="M 439.855071 301.982727 
L 497.152542 301.982727 
L 497.152542 290.603388 
L 439.855071 290.603388 
z
" clip-path="url(#pa0a4593085)" style="fill: #ff7f0e; opacity: 0.5; stroke: #ff7f0e; stroke-linejoin: miter"/>
   </g>
   <g id="PathCollection_3">
    <defs>
     <path id="mca0ea856fb" d="M 0 3.162278 
C 0.838646 3.162278 1.643056 2.82908 2.236068 2.236068 
C 2.82908 1.643056 3.162278 0.838646 3.162278 0 
C 3.162278 -0.838646 2.82908 -1.643056 2.236068 -2.236068 
C 1.643056 -2.82908 0.838646 -3.162278 0 -3.162278 
C -0.838646 -3.162278 -1.643056 -2.82908 -2.236068 -2.236068 
C -2.82908 -1.643056 -3.162278 -0.838646 -3.162278 0 
C -3.162278 0.838646 -2.82908 1.643056 -2.236068 2.236068 
C -1.643056 2.82908 -0.838646 3.162278 0 3.162278 
z
" style="stroke: #ff7f0e; stroke-opacity: 0"/>
    </defs>
    <g clip-path="url(#pa0a4593085)">
     <use xlink:href="#mca0ea856fb" x="439.855071" y="296.293058" style="fill: #ff7f0e; fill-opacity: 0; stroke: #ff7f0e; stroke-opacity: 0"/>
    </g>
   </g>
   <g id="patch_6">
    <path d="M 524.069029 301.982727 
L 615.744982 301.982727 
L 615.744982 290.603388 
L 524.069029 290.603388 
z
" clip-path="url(#pa0a4593085)" style="fill: #ffbb78; opacity: 0.5; stroke: #ffbb78; stroke-linejoin: miter"/>
   </g>
   <g id="PathCollection_4">
    <defs>
     <path id="md6597b9014" d="M 0 3.162278 
C 0.838646 3.162278 1.643056 2.82908 2.236068 2.236068 
C 2.82908 1.643056 3.162278 0.838646 3.162278 0 
C 3.162278 -0.838646 2.82908 -1.643056 2.236068 -2.236068 
C 1.643056 -2.82908 0.838646 -3.162278 0 -3.162278 
C -0.838646 -3.162278 -1.643056 -2.82908 -2.236068 -2.236068 
C -2.82908 -1.643056 -3.162278 -0.838646 -3.162278 0 
C -3.162278 0.838646 -2.82908 1.643056 -2.236068 2.236068 
C -1.643056 2.82908 -0.838646 3.162278 0 3.162278 
z
" style="stroke: #ffbb78; stroke-opacity: 0"/>
    </defs>
    <g clip-path="url(#pa0a4593085)">
     <use xlink:href="#md6597b9014" x="524.069029" y="296.293058" style="fill: #ffbb78; fill-opacity: 0; stroke: #ffbb78; stroke-opacity: 0"/>
    </g>
   </g>
   <g id="patch_7">
    <path d="M 141.499284 245.086033 
L 215.985996 245.086033 
L 215.985996 233.706694 
L 141.499284 233.706694 
z
" clip-path="url(#pa0a4593085)" style="fill: #aec7e8; opacity: 0.5; stroke: #aec7e8; stroke-linejoin: miter"/>
   </g>
   <g id="PathCollection_5">
    <g clip-path="url(#pa0a4593085)">
     <use xlink:href="#ma765fcf4d2" x="141.499284" y="239.396364" style="fill: #aec7e8; fill-opacity: 0; stroke: #aec7e8; stroke-opacity: 0"/>
    </g>
   </g>
   <g id="patch_8">
    <path d="M 249.574168 245.086033 
L 369.898857 245.086033 
L 369.898857 233.706694 
L 249.574168 233.706694 
z
" clip-path="url(#pa0a4593085)" style="fill: #1f77b4; opacity: 0.5; stroke: #1f77b4; stroke-linejoin: miter"/>
   </g>
   <g id="PathCollection_6">
    <g clip-path="url(#pa0a4593085)">
     <use xlink:href="#mafdd42eb6b" x="249.574168" y="239.396364" style="fill: #1f77b4; fill-opacity: 0; stroke: #1f77b4; stroke-opacity: 0"/>
    </g>
   </g>
   <g id="patch_9">
    <path d="M 375.628604 245.086033 
L 450.115316 245.086033 
L 450.115316 233.706694 
L 375.628604 233.706694 
z
" clip-path="url(#pa0a4593085)" style="fill: #98df8a; opacity: 0.5; stroke: #98df8a; stroke-linejoin: miter"/>
   </g>
   <g id="PathCollection_7">
    <defs>
     <path id="m21734292c8" d="M 0 3.162278 
C 0.838646 3.162278 1.643056 2.82908 2.236068 2.236068 
C 2.82908 1.643056 3.162278 0.838646 3.162278 0 
C 3.162278 -0.838646 2.82908 -1.643056 2.236068 -2.236068 
C 1.643056 -2.82908 0.838646 -3.162278 0 -3.162278 
C -0.838646 -3.162278 -1.643056 -2.82908 -2.236068 -2.236068 
C -2.82908 -1.643056 -3.162278 -0.838646 -3.162278 0 
C -3.162278 0.838646 -2.82908 1.643056 -2.236068 2.236068 
C -1.643056 2.82908 -0.838646 3.162278 0 3.162278 
z
" style="stroke: #98df8a; stroke-opacity: 0"/>
    </defs>
    <g clip-path="url(#pa0a4593085)">
     <use xlink:href="#m21734292c8" x="375.628604" y="239.396364" style="fill: #98df8a; fill-opacity: 0; stroke: #98df8a; stroke-opacity: 0"/>
    </g>
   </g>
   <g id="patch_10">
    <path d="M 473.231882 245.086033 
L 530.529353 245.086033 
L 530.529353 233.706694 
L 473.231882 233.706694 
z
" clip-path="url(#pa0a4593085)" style="fill: #ff7f0e; opacity: 0.5; stroke: #ff7f0e; stroke-linejoin: miter"/>
   </g>
   <g id="PathCollection_8">
    <g clip-path="url(#pa0a4593085)">
     <use xlink:href="#mca0ea856fb" x="473.231882" y="239.396364" style="fill: #ff7f0e; fill-opacity: 0; stroke: #ff7f0e; stroke-opacity: 0"/>
    </g>
   </g>
   <g id="patch_11">
    <path d="M 555.621694 245.086033 
L 647.297647 245.086033 
L 647.297647 233.706694 
L 555.621694 233.706694 
z
" clip-path="url(#pa0a4593085)" style="fill: #ffbb78; opacity: 0.5; stroke: #ffbb78; stroke-linejoin: miter"/>
   </g>
   <g id="PathCollection_9">
    <g clip-path="url(#pa0a4593085)">
     <use xlink:href="#md6597b9014" x="555.621694" y="239.396364" style="fill: #ffbb78; fill-opacity: 0; stroke: #ffbb78; stroke-opacity: 0"/>
    </g>
   </g>
   <g id="patch_12">
    <path d="M 148.54968 188.189339 
L 223.036392 188.189339 
L 223.036392 176.81 
L 148.54968 176.81 
z
" clip-path="url(#pa0a4593085)" style="fill: #aec7e8; opacity: 0.5; stroke: #aec7e8; stroke-linejoin: miter"/>
   </g>
   <g id="PathCollection_10">
    <g clip-path="url(#pa0a4593085)">
     <use xlink:href="#ma765fcf4d2" x="148.54968" y="182.499669" style="fill: #aec7e8; fill-opacity: 0; stroke: #aec7e8; stroke-opacity: 0"/>
    </g>
   </g>
   <g id="patch_13">
    <path d="M 249.574168 188.189339 
L 369.898857 188.189339 
L 369.898857 176.81 
L 249.574168 176.81 
z
" clip-path="url(#pa0a4593085)" style="fill: #1f77b4; opacity: 0.5; stroke: #1f77b4; stroke-linejoin: miter"/>
   </g>
   <g id="PathCollection_11">
    <g clip-path="url(#pa0a4593085)">
     <use xlink:href="#mafdd42eb6b" x="249.574168" y="182.499669" style="fill: #1f77b4; fill-opacity: 0; stroke: #1f77b4; stroke-opacity: 0"/>
    </g>
   </g>
   <g id="patch_14">
    <path d="M 450.416882 188.189339 
L 507.714353 188.189339 
L 507.714353 176.81 
L 450.416882 176.81 
z
" clip-path="url(#pa0a4593085)" style="fill: #ff7f0e; opacity: 0.5; stroke: #ff7f0e; stroke-linejoin: miter"/>
   </g>
   <g id="PathCollection_12">
    <g clip-path="url(#pa0a4593085)">
     <use xlink:href="#mca0ea856fb" x="450.416882" y="182.499669" style="fill: #ff7f0e; fill-opacity: 0; stroke: #ff7f0e; stroke-opacity: 0"/>
    </g>
   </g>
   <g id="patch_15">
    <path d="M 519.776978 188.189339 
L 565.614955 188.189339 
L 565.614955 176.81 
L 519.776978 176.81 
z
" clip-path="url(#pa0a4593085)" style="fill: #2ca02c; opacity: 0.5; stroke: #2ca02c; stroke-linejoin: miter"/>
   </g>
   <g id="PathCollection_13">
    <defs>
     <path id="m50cfcabd6d" d="M 0 3.162278 
C 0.838646 3.162278 1.643056 2.82908 2.236068 2.236068 
C 2.82908 1.643056 3.162278 0.838646 3.162278 0 
C 3.162278 -0.838646 2.82908 -1.643056 2.236068 -2.236068 
C 1.643056 -2.82908 0.838646 -3.162278 0 -3.162278 
C -0.838646 -3.162278 -1.643056 -2.82908 -2.236068 -2.236068 
C -2.82908 -1.643056 -3.162278 -0.838646 -3.162278 0 
C -3.162278 0.838646 -2.82908 1.643056 -2.236068 2.236068 
C -1.643056 2.82908 -0.838646 3.162278 0 3.162278 
z
" style="stroke: #2ca02c; stroke-opacity: 0"/>
    </defs>
    <g clip-path="url(#pa0a4593085)">
     <use xlink:href="#m50cfcabd6d" x="519.776978" y="182.499669" style="fill: #2ca02c; fill-opacity: 0; stroke: #2ca02c; stroke-opacity: 0"/>
    </g>
   </g>
   <g id="patch_16">
    <path d="M 145.165444 131.292645 
L 219.652156 131.292645 
L 219.652156 119.913306 
L 145.165444 119.913306 
z
" clip-path="url(#pa0a4593085)" style="fill: #aec7e8; opacity: 0.5; stroke: #aec7e8; stroke-linejoin: miter"/>
   </g>
   <g id="PathCollection_14">
    <g clip-path="url(#pa0a4593085)">
     <use xlink:href="#ma765fcf4d2" x="145.165444" y="125.602975" style="fill: #aec7e8; fill-opacity: 0; stroke: #aec7e8; stroke-opacity: 0"/>
    </g>
   </g>
   <g id="patch_17">
    <path d="M 249.574168 131.292645 
L 369.898857 131.292645 
L 369.898857 119.913306 
L 249.574168 119.913306 
z
" clip-path="url(#pa0a4593085)" style="fill: #1f77b4; opacity: 0.5; stroke: #1f77b4; stroke-linejoin: miter"/>
   </g>
   <g id="PathCollection_15">
    <g clip-path="url(#pa0a4593085)">
     <use xlink:href="#mafdd42eb6b" x="249.574168" y="125.602975" style="fill: #1f77b4; fill-opacity: 0; stroke: #1f77b4; stroke-opacity: 0"/>
    </g>
   </g>
   <g id="patch_18">
    <path d="M 441.202376 131.292645 
L 498.499847 131.292645 
L 498.499847 119.913306 
L 441.202376 119.913306 
z
" clip-path="url(#pa0a4593085)" style="fill: #ff7f0e; opacity: 0.5; stroke: #ff7f0e; stroke-linejoin: miter"/>
   </g>
   <g id="PathCollection_16">
    <g clip-path="url(#pa0a4593085)">
     <use xlink:href="#mca0ea856fb" x="441.202376" y="125.602975" style="fill: #ff7f0e; fill-opacity: 0; stroke: #ff7f0e; stroke-opacity: 0"/>
    </g>
   </g>
   <g id="patch_19">
    <path d="M 511.869257 131.292645 
L 557.707234 131.292645 
L 557.707234 119.913306 
L 511.869257 119.913306 
z
" clip-path="url(#pa0a4593085)" style="fill: #2ca02c; opacity: 0.5; stroke: #2ca02c; stroke-linejoin: miter"/>
   </g>
   <g id="PathCollection_17">
    <g clip-path="url(#pa0a4593085)">
     <use xlink:href="#m50cfcabd6d" x="511.869257" y="125.602975" style="fill: #2ca02c; fill-opacity: 0; stroke: #2ca02c; stroke-opacity: 0"/>
    </g>
   </g>
   <g id="patch_20">
    <path d="M 571.076644 131.292645 
L 616.91462 131.292645 
L 616.91462 119.913306 
L 571.076644 119.913306 
z
" clip-path="url(#pa0a4593085)" style="fill: #d62728; opacity: 0.5; stroke: #d62728; stroke-linejoin: miter"/>
   </g>
   <g id="PathCollection_18">
    <defs>
     <path id="m417d80b9fe" d="M 0 3.162278 
C 0.838646 3.162278 1.643056 2.82908 2.236068 2.236068 
C 2.82908 1.643056 3.162278 0.838646 3.162278 0 
C 3.162278 -0.838646 2.82908 -1.643056 2.236068 -2.236068 
C 1.643056 -2.82908 0.838646 -3.162278 0 -3.162278 
C -0.838646 -3.162278 -1.643056 -2.82908 -2.236068 -2.236068 
C -2.82908 -1.643056 -3.162278 -0.838646 -3.162278 0 
C -3.162278 0.838646 -2.82908 1.643056 -2.236068 2.236068 
C -1.643056 2.82908 -0.838646 3.162278 0 3.162278 
z
" style="stroke: #d62728; stroke-opacity: 0"/>
    </defs>
    <g clip-path="url(#pa0a4593085)">
     <use xlink:href="#m417d80b9fe" x="571.076644" y="125.602975" style="fill: #d62728; fill-opacity: 0; stroke: #d62728; stroke-opacity: 0"/>
    </g>
   </g>
   <g id="patch_21">
    <path d="M 141.982251 74.39595 
L 216.468963 74.39595 
L 216.468963 63.016612 
L 141.982251 63.016612 
z
" clip-path="url(#pa0a4593085)" style="fill: #aec7e8; opacity: 0.5; stroke: #aec7e8; stroke-linejoin: miter"/>
   </g>
   <g id="PathCollection_19">
    <g clip-path="url(#pa0a4593085)">
     <use xlink:href="#ma765fcf4d2" x="141.982251" y="68.706281" style="fill: #aec7e8; fill-opacity: 0; stroke: #aec7e8; stroke-opacity: 0"/>
    </g>
   </g>
   <g id="patch_22">
    <path d="M 249.574168 74.39595 
L 369.898857 74.39595 
L 369.898857 63.016612 
L 249.574168 63.016612 
z
" clip-path="url(#pa0a4593085)" style="fill: #1f77b4; opacity: 0.5; stroke: #1f77b4; stroke-linejoin: miter"/>
   </g>
   <g id="PathCollection_20">
    <g clip-path="url(#pa0a4593085)">
     <use xlink:href="#mafdd42eb6b" x="249.574168" y="68.706281" style="fill: #1f77b4; fill-opacity: 0; stroke: #1f77b4; stroke-opacity: 0"/>
    </g>
   </g>
   <g id="patch_23">
    <path d="M 438.655822 74.39595 
L 495.953293 74.39595 
L 495.953293 63.016612 
L 438.655822 63.016612 
z
" clip-path="url(#pa0a4593085)" style="fill: #ff7f0e; opacity: 0.5; stroke: #ff7f0e; stroke-linejoin: miter"/>
   </g>
   <g id="PathCollection_21">
    <g clip-path="url(#pa0a4593085)">
     <use xlink:href="#mca0ea856fb" x="438.655822" y="68.706281" style="fill: #ff7f0e; fill-opacity: 0; stroke: #ff7f0e; stroke-opacity: 0"/>
    </g>
   </g>
   <g id="patch_24">
    <path d="M 554.524041 74.39595 
L 600.362018 74.39595 
L 600.362018 63.016612 
L 554.524041 63.016612 
z
" clip-path="url(#pa0a4593085)" style="fill: #d62728; opacity: 0.5; stroke: #d62728; stroke-linejoin: miter"/>
   </g>
   <g id="PathCollection_22">
    <g clip-path="url(#pa0a4593085)">
     <use xlink:href="#m417d80b9fe" x="554.524041" y="68.706281" style="fill: #d62728; fill-opacity: 0; stroke: #d62728; stroke-opacity: 0"/>
    </g>
   </g>
   <g id="LineCollection_1">
    <path d="M 100.201477 296.293058 
L 258.368181 296.293058 
" clip-path="url(#pa0a4593085)" style="fill: none; stroke: #aec7e8; stroke-width: 1.5"/>
   </g>
   <g id="line2d_7">
    <defs>
     <path id="mdb95df754e" d="M 0 5 
L 0 -5 
" style="stroke: #aec7e8"/>
    </defs>
    <g clip-path="url(#pa0a4593085)">
     <use xlink:href="#mdb95df754e" x="100.201477" y="296.293058" style="fill: #aec7e8; stroke: #aec7e8"/>
    </g>
   </g>
   <g id="line2d_8">
    <g clip-path="url(#pa0a4593085)">
     <use xlink:href="#mdb95df754e" x="258.368181" y="296.293058" style="fill: #aec7e8; stroke: #aec7e8"/>
    </g>
   </g>
   <g id="LineCollection_2">
    <path d="M 142.041473 301.982727 
L 142.041473 279.22405 
" clip-path="url(#pa0a4593085)" style="fill: none; stroke-dasharray: 5.55,2.4; stroke-dashoffset: 0"/>
   </g>
   <g id="LineCollection_3">
    <path d="M 386.259757 284.913719 
L 550.747857 284.913719 
" clip-path="url(#pa0a4593085)" style="fill: none; stroke: #ff7f0e; stroke-width: 1.5"/>
   </g>
   <g id="line2d_9">
    <defs>
     <path id="mf0934bcdb7" d="M 0 5 
L 0 -5 
" style="stroke: #ff7f0e"/>
    </defs>
    <g clip-path="url(#pa0a4593085)">
     <use xlink:href="#mf0934bcdb7" x="386.259757" y="284.913719" style="fill: #ff7f0e; stroke: #ff7f0e"/>
    </g>
   </g>
   <g id="line2d_10">
    <g clip-path="url(#pa0a4593085)">
     <use xlink:href="#mf0934bcdb7" x="550.747857" y="284.913719" style="fill: #ff7f0e; stroke: #ff7f0e"/>
    </g>
   </g>
   <g id="LineCollection_4">
    <path d="M 439.855071 301.982727 
L 439.855071 279.22405 
" clip-path="url(#pa0a4593085)" style="fill: none; stroke-dasharray: 5.55,2.4; stroke-dashoffset: 0"/>
   </g>
   <g id="LineCollection_5">
    <path d="M 453.276644 279.22405 
L 686.537366 279.22405 
" clip-path="url(#pa0a4593085)" style="fill: none; stroke: #ffbb78; stroke-width: 1.5"/>
   </g>
   <g id="line2d_11">
    <defs>
     <path id="mcd76ea1078" d="M 0 5 
L 0 -5 
" style="stroke: #ffbb78"/>
    </defs>
    <g clip-path="url(#pa0a4593085)">
     <use xlink:href="#mcd76ea1078" x="453.276644" y="279.22405" style="fill: #ffbb78; stroke: #ffbb78"/>
    </g>
   </g>
   <g id="line2d_12">
    <g clip-path="url(#pa0a4593085)">
     <use xlink:href="#mcd76ea1078" x="686.537366" y="279.22405" style="fill: #ffbb78; stroke: #ffbb78"/>
    </g>
   </g>
   <g id="LineCollection_6">
    <path d="M 524.069029 301.982727 
L 524.069029 279.22405 
" clip-path="url(#pa0a4593085)" style="fill: none; stroke-dasharray: 5.55,2.4; stroke-dashoffset: 0"/>
   </g>
   <g id="LineCollection_7">
    <path d="M 101.352144 239.396364 
L 256.133136 239.396364 
" clip-path="url(#pa0a4593085)" style="fill: none; stroke: #aec7e8; stroke-width: 1.5"/>
   </g>
   <g id="line2d_13">
    <g clip-path="url(#pa0a4593085)">
     <use xlink:href="#mdb95df754e" x="101.352144" y="239.396364" style="fill: #aec7e8; stroke: #aec7e8"/>
    </g>
   </g>
   <g id="line2d_14">
    <g clip-path="url(#pa0a4593085)">
     <use xlink:href="#mdb95df754e" x="256.133136" y="239.396364" style="fill: #aec7e8; stroke: #aec7e8"/>
    </g>
   </g>
   <g id="LineCollection_8">
    <path d="M 141.499284 245.086033 
L 141.499284 222.327355 
" clip-path="url(#pa0a4593085)" style="fill: none; stroke-dasharray: 5.55,2.4; stroke-dashoffset: 0"/>
   </g>
   <g id="LineCollection_9">
    <path d="M 338.385248 228.017025 
L 487.358672 228.017025 
" clip-path="url(#pa0a4593085)" style="fill: none; stroke: #98df8a; stroke-width: 1.5"/>
   </g>
   <g id="line2d_15">
    <defs>
     <path id="mccc1035b06" d="M 0 5 
L 0 -5 
" style="stroke: #98df8a"/>
    </defs>
    <g clip-path="url(#pa0a4593085)">
     <use xlink:href="#mccc1035b06" x="338.385248" y="228.017025" style="fill: #98df8a; stroke: #98df8a"/>
    </g>
   </g>
   <g id="line2d_16">
    <g clip-path="url(#pa0a4593085)">
     <use xlink:href="#mccc1035b06" x="487.358672" y="228.017025" style="fill: #98df8a; stroke: #98df8a"/>
    </g>
   </g>
   <g id="LineCollection_10">
    <path d="M 375.628604 245.086033 
L 375.628604 222.327355 
" clip-path="url(#pa0a4593085)" style="fill: none; stroke-dasharray: 5.55,2.4; stroke-dashoffset: 0"/>
   </g>
   <g id="LineCollection_11">
    <path d="M 437.941486 222.327355 
L 565.819749 222.327355 
" clip-path="url(#pa0a4593085)" style="fill: none; stroke: #ff7f0e; stroke-width: 1.5"/>
   </g>
   <g id="line2d_17">
    <g clip-path="url(#pa0a4593085)">
     <use xlink:href="#mf0934bcdb7" x="437.941486" y="222.327355" style="fill: #ff7f0e; stroke: #ff7f0e"/>
    </g>
   </g>
   <g id="line2d_18">
    <g clip-path="url(#pa0a4593085)">
     <use xlink:href="#mf0934bcdb7" x="565.819749" y="222.327355" style="fill: #ff7f0e; stroke: #ff7f0e"/>
    </g>
   </g>
   <g id="LineCollection_12">
    <path d="M 473.231882 245.086033 
L 473.231882 222.327355 
" clip-path="url(#pa0a4593085)" style="fill: none; stroke-dasharray: 5.55,2.4; stroke-dashoffset: 0"/>
   </g>
   <g id="LineCollection_13">
    <path d="M 500.088318 216.637686 
L 702.831023 216.637686 
" clip-path="url(#pa0a4593085)" style="fill: none; stroke: #ffbb78; stroke-width: 1.5"/>
   </g>
   <g id="line2d_19">
    <g clip-path="url(#pa0a4593085)">
     <use xlink:href="#mcd76ea1078" x="500.088318" y="216.637686" style="fill: #ffbb78; stroke: #ffbb78"/>
    </g>
   </g>
   <g id="line2d_20">
    <g clip-path="url(#pa0a4593085)">
     <use xlink:href="#mcd76ea1078" x="702.831023" y="216.637686" style="fill: #ffbb78; stroke: #ffbb78"/>
    </g>
   </g>
   <g id="LineCollection_14">
    <path d="M 555.621694 245.086033 
L 555.621694 222.327355 
" clip-path="url(#pa0a4593085)" style="fill: none; stroke-dasharray: 5.55,2.4; stroke-dashoffset: 0"/>
   </g>
   <g id="LineCollection_15">
    <path d="M 105.664548 182.499669 
L 265.921525 182.499669 
" clip-path="url(#pa0a4593085)" style="fill: none; stroke: #aec7e8; stroke-width: 1.5"/>
   </g>
   <g id="line2d_21">
    <g clip-path="url(#pa0a4593085)">
     <use xlink:href="#mdb95df754e" x="105.664548" y="182.499669" style="fill: #aec7e8; stroke: #aec7e8"/>
    </g>
   </g>
   <g id="line2d_22">
    <g clip-path="url(#pa0a4593085)">
     <use xlink:href="#mdb95df754e" x="265.921525" y="182.499669" style="fill: #aec7e8; stroke: #aec7e8"/>
    </g>
   </g>
   <g id="LineCollection_16">
    <path d="M 148.54968 188.189339 
L 148.54968 165.430661 
" clip-path="url(#pa0a4593085)" style="fill: none; stroke-dasharray: 5.55,2.4; stroke-dashoffset: 0"/>
   </g>
   <g id="LineCollection_17">
    <path d="M 404.885857 171.120331 
L 553.245378 171.120331 
" clip-path="url(#pa0a4593085)" style="fill: none; stroke: #ff7f0e; stroke-width: 1.5"/>
   </g>
   <g id="line2d_23">
    <g clip-path="url(#pa0a4593085)">
     <use xlink:href="#mf0934bcdb7" x="404.885857" y="171.120331" style="fill: #ff7f0e; stroke: #ff7f0e"/>
    </g>
   </g>
   <g id="line2d_24">
    <g clip-path="url(#pa0a4593085)">
     <use xlink:href="#mf0934bcdb7" x="553.245378" y="171.120331" style="fill: #ff7f0e; stroke: #ff7f0e"/>
    </g>
   </g>
   <g id="LineCollection_18">
    <path d="M 450.416882 188.189339 
L 450.416882 165.430661 
" clip-path="url(#pa0a4593085)" style="fill: none; stroke-dasharray: 5.55,2.4; stroke-dashoffset: 0"/>
   </g>
   <g id="LineCollection_19">
    <path d="M 480.730571 165.430661 
L 604.661362 165.430661 
" clip-path="url(#pa0a4593085)" style="fill: none; stroke: #2ca02c; stroke-width: 1.5"/>
   </g>
   <g id="line2d_25">
    <defs>
     <path id="m13a011921e" d="M 0 5 
L 0 -5 
" style="stroke: #2ca02c"/>
    </defs>
    <g clip-path="url(#pa0a4593085)">
     <use xlink:href="#m13a011921e" x="480.730571" y="165.430661" style="fill: #2ca02c; stroke: #2ca02c"/>
    </g>
   </g>
   <g id="line2d_26">
    <g clip-path="url(#pa0a4593085)">
     <use xlink:href="#m13a011921e" x="604.661362" y="165.430661" style="fill: #2ca02c; stroke: #2ca02c"/>
    </g>
   </g>
   <g id="LineCollection_20">
    <path d="M 519.776978 188.189339 
L 519.776978 165.430661 
" clip-path="url(#pa0a4593085)" style="fill: none; stroke-dasharray: 5.55,2.4; stroke-dashoffset: 0"/>
   </g>
   <g id="LineCollection_21">
    <path d="M 101.154527 125.602975 
L 263.663073 125.602975 
" clip-path="url(#pa0a4593085)" style="fill: none; stroke: #aec7e8; stroke-width: 1.5"/>
   </g>
   <g id="line2d_27">
    <g clip-path="url(#pa0a4593085)">
     <use xlink:href="#mdb95df754e" x="101.154527" y="125.602975" style="fill: #aec7e8; stroke: #aec7e8"/>
    </g>
   </g>
   <g id="line2d_28">
    <g clip-path="url(#pa0a4593085)">
     <use xlink:href="#mdb95df754e" x="263.663073" y="125.602975" style="fill: #aec7e8; stroke: #aec7e8"/>
    </g>
   </g>
   <g id="LineCollection_22">
    <path d="M 145.165444 131.292645 
L 145.165444 108.533967 
" clip-path="url(#pa0a4593085)" style="fill: none; stroke-dasharray: 5.55,2.4; stroke-dashoffset: 0"/>
   </g>
   <g id="LineCollection_23">
    <path d="M 392.141456 114.223636 
L 547.560768 114.223636 
" clip-path="url(#pa0a4593085)" style="fill: none; stroke: #ff7f0e; stroke-width: 1.5"/>
   </g>
   <g id="line2d_29">
    <g clip-path="url(#pa0a4593085)">
     <use xlink:href="#mf0934bcdb7" x="392.141456" y="114.223636" style="fill: #ff7f0e; stroke: #ff7f0e"/>
    </g>
   </g>
   <g id="line2d_30">
    <g clip-path="url(#pa0a4593085)">
     <use xlink:href="#mf0934bcdb7" x="547.560768" y="114.223636" style="fill: #ff7f0e; stroke: #ff7f0e"/>
    </g>
   </g>
   <g id="LineCollection_24">
    <path d="M 441.202376 131.292645 
L 441.202376 108.533967 
" clip-path="url(#pa0a4593085)" style="fill: none; stroke-dasharray: 5.55,2.4; stroke-dashoffset: 0"/>
   </g>
   <g id="LineCollection_25">
    <path d="M 467.979816 108.533967 
L 601.596675 108.533967 
" clip-path="url(#pa0a4593085)" style="fill: none; stroke: #2ca02c; stroke-width: 1.5"/>
   </g>
   <g id="line2d_31">
    <g clip-path="url(#pa0a4593085)">
     <use xlink:href="#m13a011921e" x="467.979816" y="108.533967" style="fill: #2ca02c; stroke: #2ca02c"/>
    </g>
   </g>
   <g id="line2d_32">
    <g clip-path="url(#pa0a4593085)">
     <use xlink:href="#m13a011921e" x="601.596675" y="108.533967" style="fill: #2ca02c; stroke: #2ca02c"/>
    </g>
   </g>
   <g id="LineCollection_26">
    <path d="M 511.869257 131.292645 
L 511.869257 108.533967 
" clip-path="url(#pa0a4593085)" style="fill: none; stroke-dasharray: 5.55,2.4; stroke-dashoffset: 0"/>
   </g>
   <g id="LineCollection_27">
    <path d="M 528.227716 102.844298 
L 659.763548 102.844298 
" clip-path="url(#pa0a4593085)" style="fill: none; stroke: #d62728; stroke-width: 1.5"/>
   </g>
   <g id="line2d_33">
    <defs>
     <path id="mbfe6bcb127" d="M 0 5 
L 0 -5 
" style="stroke: #d62728"/>
    </defs>
    <g clip-path="url(#pa0a4593085)">
     <use xlink:href="#mbfe6bcb127" x="528.227716" y="102.844298" style="fill: #d62728; stroke: #d62728"/>
    </g>
   </g>
   <g id="line2d_34">
    <g clip-path="url(#pa0a4593085)">
     <use xlink:href="#mbfe6bcb127" x="659.763548" y="102.844298" style="fill: #d62728; stroke: #d62728"/>
    </g>
   </g>
   <g id="LineCollection_28">
    <path d="M 571.076644 131.292645 
L 571.076644 108.533967 
" clip-path="url(#pa0a4593085)" style="fill: none; stroke-dasharray: 5.55,2.4; stroke-dashoffset: 0"/>
   </g>
   <g id="LineCollection_29">
    <path d="M 101.137523 68.706281 
L 257.313691 68.706281 
" clip-path="url(#pa0a4593085)" style="fill: none; stroke: #aec7e8; stroke-width: 1.5"/>
   </g>
   <g id="line2d_35">
    <g clip-path="url(#pa0a4593085)">
     <use xlink:href="#mdb95df754e" x="101.137523" y="68.706281" style="fill: #aec7e8; stroke: #aec7e8"/>
    </g>
   </g>
   <g id="line2d_36">
    <g clip-path="url(#pa0a4593085)">
     <use xlink:href="#mdb95df754e" x="257.313691" y="68.706281" style="fill: #aec7e8; stroke: #aec7e8"/>
    </g>
   </g>
   <g id="LineCollection_30">
    <path d="M 141.982251 74.39595 
L 141.982251 51.637273 
" clip-path="url(#pa0a4593085)" style="fill: none; stroke-dasharray: 5.55,2.4; stroke-dashoffset: 0"/>
   </g>
   <g id="LineCollection_31">
    <path d="M 389.614767 57.326942 
L 544.994348 57.326942 
" clip-path="url(#pa0a4593085)" style="fill: none; stroke: #ff7f0e; stroke-width: 1.5"/>
   </g>
   <g id="line2d_37">
    <g clip-path="url(#pa0a4593085)">
     <use xlink:href="#mf0934bcdb7" x="389.614767" y="57.326942" style="fill: #ff7f0e; stroke: #ff7f0e"/>
    </g>
   </g>
   <g id="line2d_38">
    <g clip-path="url(#pa0a4593085)">
     <use xlink:href="#mf0934bcdb7" x="544.994348" y="57.326942" style="fill: #ff7f0e; stroke: #ff7f0e"/>
    </g>
   </g>
   <g id="LineCollection_32">
    <path d="M 438.655822 74.39595 
L 438.655822 51.637273 
" clip-path="url(#pa0a4593085)" style="fill: none; stroke-dasharray: 5.55,2.4; stroke-dashoffset: 0"/>
   </g>
   <g id="LineCollection_33">
    <path d="M 510.547805 51.637273 
L 644.338253 51.637273 
" clip-path="url(#pa0a4593085)" style="fill: none; stroke: #d62728; stroke-width: 1.5"/>
   </g>
   <g id="line2d_39">
    <g clip-path="url(#pa0a4593085)">
     <use xlink:href="#mbfe6bcb127" x="510.547805" y="51.637273" style="fill: #d62728; stroke: #d62728"/>
    </g>
   </g>
   <g id="line2d_40">
    <g clip-path="url(#pa0a4593085)">
     <use xlink:href="#mbfe6bcb127" x="644.338253" y="51.637273" style="fill: #d62728; stroke: #d62728"/>
    </g>
   </g>
   <g id="LineCollection_34">
    <path d="M 554.524041 74.39595 
L 554.524041 51.637273 
" clip-path="url(#pa0a4593085)" style="fill: none; stroke-dasharray: 5.55,2.4; stroke-dashoffset: 0"/>
   </g>
   <g id="patch_25">
    <path d="M 134.979227 314.5 
L 707.953935 314.5 
" style="fill: none; stroke: #262626; stroke-width: 1.25; stroke-linejoin: miter; stroke-linecap: square"/>
   </g>
   <g id="text_12">
    <!-- 2 -->
    <g transform="translate(175.467329 299.604308) scale(0.12 -0.12)">
     <use xlink:href="#DejaVuSans-32"/>
    </g>
   </g>
   <g id="text_13">
    <!-- 1 -->
    <g transform="translate(305.919013 299.604308) scale(0.12 -0.12)">
     <use xlink:href="#DejaVuSans-31"/>
    </g>
   </g>
   <g id="text_14">
    <!-- 3 -->
    <g transform="translate(464.686307 299.604308) scale(0.12 -0.12)">
     <use xlink:href="#DejaVuSans-33"/>
    </g>
   </g>
   <g id="text_15">
    <!-- 4 -->
    <g transform="translate(566.089505 299.604308) scale(0.12 -0.12)">
     <use xlink:href="#DejaVuSans-34"/>
    </g>
   </g>
   <g id="text_16">
    <!-- 2 -->
    <g transform="translate(174.92514 242.707614) scale(0.12 -0.12)">
     <use xlink:href="#DejaVuSans-32"/>
    </g>
   </g>
   <g id="text_17">
    <!-- 1 -->
    <g transform="translate(305.919013 242.707614) scale(0.12 -0.12)">
     <use xlink:href="#DejaVuSans-31"/>
    </g>
   </g>
   <g id="text_18">
    <!-- 6 -->
    <g transform="translate(409.05446 242.707614) scale(0.12 -0.12)">
     <use xlink:href="#DejaVuSans-36"/>
    </g>
   </g>
   <g id="text_19">
    <!-- 3 -->
    <g transform="translate(498.063117 242.707614) scale(0.12 -0.12)">
     <use xlink:href="#DejaVuSans-33"/>
    </g>
   </g>
   <g id="text_20">
    <!-- 4 -->
    <g transform="translate(597.64217 242.707614) scale(0.12 -0.12)">
     <use xlink:href="#DejaVuSans-34"/>
    </g>
   </g>
   <g id="text_21">
    <!-- 2 -->
    <g transform="translate(181.975536 185.810919) scale(0.12 -0.12)">
     <use xlink:href="#DejaVuSans-32"/>
    </g>
   </g>
   <g id="text_22">
    <!-- 1 -->
    <g transform="translate(305.919013 185.810919) scale(0.12 -0.12)">
     <use xlink:href="#DejaVuSans-31"/>
    </g>
   </g>
   <g id="text_23">
    <!-- 3 -->
    <g transform="translate(475.248117 185.810919) scale(0.12 -0.12)">
     <use xlink:href="#DejaVuSans-33"/>
    </g>
   </g>
   <g id="text_24">
    <!-- 5 -->
    <g transform="translate(538.878466 185.810919) scale(0.12 -0.12)">
     <use xlink:href="#DejaVuSans-35"/>
    </g>
   </g>
   <g id="text_25">
    <!-- 2 -->
    <g transform="translate(178.5913 128.914225) scale(0.12 -0.12)">
     <use xlink:href="#DejaVuSans-32"/>
    </g>
   </g>
   <g id="text_26">
    <!-- 1 -->
    <g transform="translate(305.919013 128.914225) scale(0.12 -0.12)">
     <use xlink:href="#DejaVuSans-31"/>
    </g>
   </g>
   <g id="text_27">
    <!-- 3 -->
    <g transform="translate(466.033612 128.914225) scale(0.12 -0.12)">
     <use xlink:href="#DejaVuSans-33"/>
    </g>
   </g>
   <g id="text_28">
    <!-- 5 -->
    <g transform="translate(530.970745 128.914225) scale(0.12 -0.12)">
     <use xlink:href="#DejaVuSans-35"/>
    </g>
   </g>
   <g id="text_29">
    <!-- 7 -->
    <g transform="translate(590.178132 128.914225) scale(0.12 -0.12)">
     <defs>
      <path id="DejaVuSans-37" d="M 525 4666 
L 3525 4666 
L 3525 4397 
L 1831 0 
L 1172 0 
L 2766 4134 
L 525 4134 
L 525 4666 
z
" transform="scale(0.015625)"/>
     </defs>
     <use xlink:href="#DejaVuSans-37"/>
    </g>
   </g>
   <g id="text_30">
    <!-- 2 -->
    <g transform="translate(175.408107 72.017531) scale(0.12 -0.12)">
     <use xlink:href="#DejaVuSans-32"/>
    </g>
   </g>
   <g id="text_31">
    <!-- 1 -->
    <g transform="translate(305.919013 72.017531) scale(0.12 -0.12)">
     <use xlink:href="#DejaVuSans-31"/>
    </g>
   </g>
   <g id="text_32">
    <!-- 3 -->
    <g transform="translate(463.487058 72.017531) scale(0.12 -0.12)">
     <use xlink:href="#DejaVuSans-33"/>
    </g>
   </g>
   <g id="text_33">
    <!-- 7 -->
    <g transform="translate(573.625529 72.017531) scale(0.12 -0.12)">
     <use xlink:href="#DejaVuSans-37"/>
    </g>
   </g>
   <g id="text_34">
    <!-- Relative positions of top 5 motif combinations (relative to motif #1) -->
    <g style="fill: #262626" transform="translate(96.3375 33.12) scale(0.18 -0.18)">
     <defs>
      <path id="DejaVuSans-52" d="M 2841 2188 
Q 3044 2119 3236 1894 
Q 3428 1669 3622 1275 
L 4263 0 
L 3584 0 
L 2988 1197 
Q 2756 1666 2539 1819 
Q 2322 1972 1947 1972 
L 1259 1972 
L 1259 0 
L 628 0 
L 628 4666 
L 2053 4666 
Q 2853 4666 3247 4331 
Q 3641 3997 3641 3322 
Q 3641 2881 3436 2590 
Q 3231 2300 2841 2188 
z
M 1259 4147 
L 1259 2491 
L 2053 2491 
Q 2509 2491 2742 2702 
Q 2975 2913 2975 3322 
Q 2975 3731 2742 3939 
Q 2509 4147 2053 4147 
L 1259 4147 
z
" transform="scale(0.015625)"/>
      <path id="DejaVuSans-65" d="M 3597 1894 
L 3597 1613 
L 953 1613 
Q 991 1019 1311 708 
Q 1631 397 2203 397 
Q 2534 397 2845 478 
Q 3156 559 3463 722 
L 3463 178 
Q 3153 47 2828 -22 
Q 2503 -91 2169 -91 
Q 1331 -91 842 396 
Q 353 884 353 1716 
Q 353 2575 817 3079 
Q 1281 3584 2069 3584 
Q 2775 3584 3186 3129 
Q 3597 2675 3597 1894 
z
M 3022 2063 
Q 3016 2534 2758 2815 
Q 2500 3097 2075 3097 
Q 1594 3097 1305 2825 
Q 1016 2553 972 2059 
L 3022 2063 
z
" transform="scale(0.015625)"/>
      <path id="DejaVuSans-6c" d="M 603 4863 
L 1178 4863 
L 1178 0 
L 603 0 
L 603 4863 
z
" transform="scale(0.015625)"/>
      <path id="DejaVuSans-61" d="M 2194 1759 
Q 1497 1759 1228 1600 
Q 959 1441 959 1056 
Q 959 750 1161 570 
Q 1363 391 1709 391 
Q 2188 391 2477 730 
Q 2766 1069 2766 1631 
L 2766 1759 
L 2194 1759 
z
M 3341 1997 
L 3341 0 
L 2766 0 
L 2766 531 
Q 2569 213 2275 61 
Q 1981 -91 1556 -91 
Q 1019 -91 701 211 
Q 384 513 384 1019 
Q 384 1609 779 1909 
Q 1175 2209 1959 2209 
L 2766 2209 
L 2766 2266 
Q 2766 2663 2505 2880 
Q 2244 3097 1772 3097 
Q 1472 3097 1187 3025 
Q 903 2953 641 2809 
L 641 3341 
Q 956 3463 1253 3523 
Q 1550 3584 1831 3584 
Q 2591 3584 2966 3190 
Q 3341 2797 3341 1997 
z
" transform="scale(0.015625)"/>
      <path id="DejaVuSans-74" d="M 1172 4494 
L 1172 3500 
L 2356 3500 
L 2356 3053 
L 1172 3053 
L 1172 1153 
Q 1172 725 1289 603 
Q 1406 481 1766 481 
L 2356 481 
L 2356 0 
L 1766 0 
Q 1100 0 847 248 
Q 594 497 594 1153 
L 594 3053 
L 172 3053 
L 172 3500 
L 594 3500 
L 594 4494 
L 1172 4494 
z
" transform="scale(0.015625)"/>
      <path id="DejaVuSans-69" d="M 603 3500 
L 1178 3500 
L 1178 0 
L 603 0 
L 603 3500 
z
M 603 4863 
L 1178 4863 
L 1178 4134 
L 603 4134 
L 603 4863 
z
" transform="scale(0.015625)"/>
      <path id="DejaVuSans-76" d="M 191 3500 
L 800 3500 
L 1894 563 
L 2988 3500 
L 3597 3500 
L 2284 0 
L 1503 0 
L 191 3500 
z
" transform="scale(0.015625)"/>
      <path id="DejaVuSans-20" transform="scale(0.015625)"/>
      <path id="DejaVuSans-70" d="M 1159 525 
L 1159 -1331 
L 581 -1331 
L 581 3500 
L 1159 3500 
L 1159 2969 
Q 1341 3281 1617 3432 
Q 1894 3584 2278 3584 
Q 2916 3584 3314 3078 
Q 3713 2572 3713 1747 
Q 3713 922 3314 415 
Q 2916 -91 2278 -91 
Q 1894 -91 1617 61 
Q 1341 213 1159 525 
z
M 3116 1747 
Q 3116 2381 2855 2742 
Q 2594 3103 2138 3103 
Q 1681 3103 1420 2742 
Q 1159 2381 1159 1747 
Q 1159 1113 1420 752 
Q 1681 391 2138 391 
Q 2594 391 2855 752 
Q 3116 1113 3116 1747 
z
" transform="scale(0.015625)"/>
      <path id="DejaVuSans-6f" d="M 1959 3097 
Q 1497 3097 1228 2736 
Q 959 2375 959 1747 
Q 959 1119 1226 758 
Q 1494 397 1959 397 
Q 2419 397 2687 759 
Q 2956 1122 2956 1747 
Q 2956 2369 2687 2733 
Q 2419 3097 1959 3097 
z
M 1959 3584 
Q 2709 3584 3137 3096 
Q 3566 2609 3566 1747 
Q 3566 888 3137 398 
Q 2709 -91 1959 -91 
Q 1206 -91 779 398 
Q 353 888 353 1747 
Q 353 2609 779 3096 
Q 1206 3584 1959 3584 
z
" transform="scale(0.015625)"/>
      <path id="DejaVuSans-73" d="M 2834 3397 
L 2834 2853 
Q 2591 2978 2328 3040 
Q 2066 3103 1784 3103 
Q 1356 3103 1142 2972 
Q 928 2841 928 2578 
Q 928 2378 1081 2264 
Q 1234 2150 1697 2047 
L 1894 2003 
Q 2506 1872 2764 1633 
Q 3022 1394 3022 966 
Q 3022 478 2636 193 
Q 2250 -91 1575 -91 
Q 1294 -91 989 -36 
Q 684 19 347 128 
L 347 722 
Q 666 556 975 473 
Q 1284 391 1588 391 
Q 1994 391 2212 530 
Q 2431 669 2431 922 
Q 2431 1156 2273 1281 
Q 2116 1406 1581 1522 
L 1381 1569 
Q 847 1681 609 1914 
Q 372 2147 372 2553 
Q 372 3047 722 3315 
Q 1072 3584 1716 3584 
Q 2034 3584 2315 3537 
Q 2597 3491 2834 3397 
z
" transform="scale(0.015625)"/>
      <path id="DejaVuSans-6e" d="M 3513 2113 
L 3513 0 
L 2938 0 
L 2938 2094 
Q 2938 2591 2744 2837 
Q 2550 3084 2163 3084 
Q 1697 3084 1428 2787 
Q 1159 2491 1159 1978 
L 1159 0 
L 581 0 
L 581 3500 
L 1159 3500 
L 1159 2956 
Q 1366 3272 1645 3428 
Q 1925 3584 2291 3584 
Q 2894 3584 3203 3211 
Q 3513 2838 3513 2113 
z
" transform="scale(0.015625)"/>
      <path id="DejaVuSans-66" d="M 2375 4863 
L 2375 4384 
L 1825 4384 
Q 1516 4384 1395 4259 
Q 1275 4134 1275 3809 
L 1275 3500 
L 2222 3500 
L 2222 3053 
L 1275 3053 
L 1275 0 
L 697 0 
L 697 3053 
L 147 3053 
L 147 3500 
L 697 3500 
L 697 3744 
Q 697 4328 969 4595 
Q 1241 4863 1831 4863 
L 2375 4863 
z
" transform="scale(0.015625)"/>
      <path id="DejaVuSans-6d" d="M 3328 2828 
Q 3544 3216 3844 3400 
Q 4144 3584 4550 3584 
Q 5097 3584 5394 3201 
Q 5691 2819 5691 2113 
L 5691 0 
L 5113 0 
L 5113 2094 
Q 5113 2597 4934 2840 
Q 4756 3084 4391 3084 
Q 3944 3084 3684 2787 
Q 3425 2491 3425 1978 
L 3425 0 
L 2847 0 
L 2847 2094 
Q 2847 2600 2669 2842 
Q 2491 3084 2119 3084 
Q 1678 3084 1418 2786 
Q 1159 2488 1159 1978 
L 1159 0 
L 581 0 
L 581 3500 
L 1159 3500 
L 1159 2956 
Q 1356 3278 1631 3431 
Q 1906 3584 2284 3584 
Q 2666 3584 2933 3390 
Q 3200 3197 3328 2828 
z
" transform="scale(0.015625)"/>
      <path id="DejaVuSans-63" d="M 3122 3366 
L 3122 2828 
Q 2878 2963 2633 3030 
Q 2388 3097 2138 3097 
Q 1578 3097 1268 2742 
Q 959 2388 959 1747 
Q 959 1106 1268 751 
Q 1578 397 2138 397 
Q 2388 397 2633 464 
Q 2878 531 3122 666 
L 3122 134 
Q 2881 22 2623 -34 
Q 2366 -91 2075 -91 
Q 1284 -91 818 406 
Q 353 903 353 1747 
Q 353 2603 823 3093 
Q 1294 3584 2113 3584 
Q 2378 3584 2631 3529 
Q 2884 3475 3122 3366 
z
" transform="scale(0.015625)"/>
      <path id="DejaVuSans-62" d="M 3116 1747 
Q 3116 2381 2855 2742 
Q 2594 3103 2138 3103 
Q 1681 3103 1420 2742 
Q 1159 2381 1159 1747 
Q 1159 1113 1420 752 
Q 1681 391 2138 391 
Q 2594 391 2855 752 
Q 3116 1113 3116 1747 
z
M 1159 2969 
Q 1341 3281 1617 3432 
Q 1894 3584 2278 3584 
Q 2916 3584 3314 3078 
Q 3713 2572 3713 1747 
Q 3713 922 3314 415 
Q 2916 -91 2278 -91 
Q 1894 -91 1617 61 
Q 1341 213 1159 525 
L 1159 0 
L 581 0 
L 581 4863 
L 1159 4863 
L 1159 2969 
z
" transform="scale(0.015625)"/>
      <path id="DejaVuSans-28" d="M 1984 4856 
Q 1566 4138 1362 3434 
Q 1159 2731 1159 2009 
Q 1159 1288 1364 580 
Q 1569 -128 1984 -844 
L 1484 -844 
Q 1016 -109 783 600 
Q 550 1309 550 2009 
Q 550 2706 781 3412 
Q 1013 4119 1484 4856 
L 1984 4856 
z
" transform="scale(0.015625)"/>
      <path id="DejaVuSans-72" d="M 2631 2963 
Q 2534 3019 2420 3045 
Q 2306 3072 2169 3072 
Q 1681 3072 1420 2755 
Q 1159 2438 1159 1844 
L 1159 0 
L 581 0 
L 581 3500 
L 1159 3500 
L 1159 2956 
Q 1341 3275 1631 3429 
Q 1922 3584 2338 3584 
Q 2397 3584 2469 3576 
Q 2541 3569 2628 3553 
L 2631 2963 
z
" transform="scale(0.015625)"/>
      <path id="DejaVuSans-23" d="M 3272 2816 
L 2363 2816 
L 2100 1772 
L 3016 1772 
L 3272 2816 
z
M 2803 4594 
L 2478 3297 
L 3391 3297 
L 3719 4594 
L 4219 4594 
L 3897 3297 
L 4872 3297 
L 4872 2816 
L 3775 2816 
L 3519 1772 
L 4513 1772 
L 4513 1294 
L 3397 1294 
L 3072 0 
L 2572 0 
L 2894 1294 
L 1978 1294 
L 1656 0 
L 1153 0 
L 1478 1294 
L 494 1294 
L 494 1772 
L 1594 1772 
L 1856 2816 
L 850 2816 
L 850 3297 
L 1978 3297 
L 2297 4594 
L 2803 4594 
z
" transform="scale(0.015625)"/>
      <path id="DejaVuSans-29" d="M 513 4856 
L 1013 4856 
Q 1481 4119 1714 3412 
Q 1947 2706 1947 2009 
Q 1947 1309 1714 600 
Q 1481 -109 1013 -844 
L 513 -844 
Q 928 -128 1133 580 
Q 1338 1288 1338 2009 
Q 1338 2731 1133 3434 
Q 928 4138 513 4856 
z
" transform="scale(0.015625)"/>
     </defs>
     <use xlink:href="#DejaVuSans-52"/>
     <use xlink:href="#DejaVuSans-65" x="64.982422"/>
     <use xlink:href="#DejaVuSans-6c" x="126.505859"/>
     <use xlink:href="#DejaVuSans-61" x="154.289062"/>
     <use xlink:href="#DejaVuSans-74" x="215.568359"/>
     <use xlink:href="#DejaVuSans-69" x="254.777344"/>
     <use xlink:href="#DejaVuSans-76" x="282.560547"/>
     <use xlink:href="#DejaVuSans-65" x="341.740234"/>
     <use xlink:href="#DejaVuSans-20" x="403.263672"/>
     <use xlink:href="#DejaVuSans-70" x="435.050781"/>
     <use xlink:href="#DejaVuSans-6f" x="498.527344"/>
     <use xlink:href="#DejaVuSans-73" x="559.708984"/>
     <use xlink:href="#DejaVuSans-69" x="611.808594"/>
     <use xlink:href="#DejaVuSans-74" x="639.591797"/>
     <use xlink:href="#DejaVuSans-69" x="678.800781"/>
     <use xlink:href="#DejaVuSans-6f" x="706.583984"/>
     <use xlink:href="#DejaVuSans-6e" x="767.765625"/>
     <use xlink:href="#DejaVuSans-73" x="831.144531"/>
     <use xlink:href="#DejaVuSans-20" x="883.244141"/>
     <use xlink:href="#DejaVuSans-6f" x="915.03125"/>
     <use xlink:href="#DejaVuSans-66" x="976.212891"/>
     <use xlink:href="#DejaVuSans-20" x="1011.417969"/>
     <use xlink:href="#DejaVuSans-74" x="1043.205078"/>
     <use xlink:href="#DejaVuSans-6f" x="1082.414062"/>
     <use xlink:href="#DejaVuSans-70" x="1143.595703"/>
     <use xlink:href="#DejaVuSans-20" x="1207.072266"/>
     <use xlink:href="#DejaVuSans-35" x="1238.859375"/>
     <use xlink:href="#DejaVuSans-20" x="1302.482422"/>
     <use xlink:href="#DejaVuSans-6d" x="1334.269531"/>
     <use xlink:href="#DejaVuSans-6f" x="1431.681641"/>
     <use xlink:href="#DejaVuSans-74" x="1492.863281"/>
     <use xlink:href="#DejaVuSans-69" x="1532.072266"/>
     <use xlink:href="#DejaVuSans-66" x="1559.855469"/>
     <use xlink:href="#DejaVuSans-20" x="1595.060547"/>
     <use xlink:href="#DejaVuSans-63" x="1626.847656"/>
     <use xlink:href="#DejaVuSans-6f" x="1681.828125"/>
     <use xlink:href="#DejaVuSans-6d" x="1743.009766"/>
     <use xlink:href="#DejaVuSans-62" x="1840.421875"/>
     <use xlink:href="#DejaVuSans-69" x="1903.898438"/>
     <use xlink:href="#DejaVuSans-6e" x="1931.681641"/>
     <use xlink:href="#DejaVuSans-61" x="1995.060547"/>
     <use xlink:href="#DejaVuSans-74" x="2056.339844"/>
     <use xlink:href="#DejaVuSans-69" x="2095.548828"/>
     <use xlink:href="#DejaVuSans-6f" x="2123.332031"/>
     <use xlink:href="#DejaVuSans-6e" x="2184.513672"/>
     <use xlink:href="#DejaVuSans-73" x="2247.892578"/>
     <use xlink:href="#DejaVuSans-20" x="2299.992188"/>
     <use xlink:href="#DejaVuSans-28" x="2331.779297"/>
     <use xlink:href="#DejaVuSans-72" x="2370.792969"/>
     <use xlink:href="#DejaVuSans-65" x="2409.65625"/>
     <use xlink:href="#DejaVuSans-6c" x="2471.179688"/>
     <use xlink:href="#DejaVuSans-61" x="2498.962891"/>
     <use xlink:href="#DejaVuSans-74" x="2560.242188"/>
     <use xlink:href="#DejaVuSans-69" x="2599.451172"/>
     <use xlink:href="#DejaVuSans-76" x="2627.234375"/>
     <use xlink:href="#DejaVuSans-65" x="2686.414062"/>
     <use xlink:href="#DejaVuSans-20" x="2747.9375"/>
     <use xlink:href="#DejaVuSans-74" x="2779.724609"/>
     <use xlink:href="#DejaVuSans-6f" x="2818.933594"/>
     <use xlink:href="#DejaVuSans-20" x="2880.115234"/>
     <use xlink:href="#DejaVuSans-6d" x="2911.902344"/>
     <use xlink:href="#DejaVuSans-6f" x="3009.314453"/>
     <use xlink:href="#DejaVuSans-74" x="3070.496094"/>
     <use xlink:href="#DejaVuSans-69" x="3109.705078"/>
     <use xlink:href="#DejaVuSans-66" x="3137.488281"/>
     <use xlink:href="#DejaVuSans-20" x="3172.693359"/>
     <use xlink:href="#DejaVuSans-23" x="3204.480469"/>
     <use xlink:href="#DejaVuSans-31" x="3288.269531"/>
     <use xlink:href="#DejaVuSans-29" x="3351.892578"/>
    </g>
   </g>
  </g>
  <g id="axes_2">
   <g id="patch_26">
    <path d="M 757.6675 314.5 
L 1420.56 314.5 
L 1420.56 39.12 
L 757.6675 39.12 
z
" style="fill: #ffffff"/>
   </g>
   <g id="matplotlib.axis_3">
    <g id="xtick_7">
     <g id="line2d_41">
      <g>
       <use xlink:href="#m2b4e925118" x="757.6675" y="314.5" style="fill: #262626; stroke: #262626; stroke-width: 1.25"/>
      </g>
     </g>
     <g id="text_35">
      <!-- 0 -->
      <g style="fill: #262626" transform="translate(752.418437 336.537422) scale(0.165 -0.165)">
       <use xlink:href="#DejaVuSans-30"/>
      </g>
     </g>
    </g>
    <g id="xtick_8">
     <g id="line2d_42">
      <g>
       <use xlink:href="#m2b4e925118" x="904.487544" y="314.5" style="fill: #262626; stroke: #262626; stroke-width: 1.25"/>
      </g>
     </g>
     <g id="text_36">
      <!-- 10 -->
      <g style="fill: #262626" transform="translate(893.989419 336.537422) scale(0.165 -0.165)">
       <use xlink:href="#DejaVuSans-31"/>
       <use xlink:href="#DejaVuSans-30" x="63.623047"/>
      </g>
     </g>
    </g>
    <g id="xtick_9">
     <g id="line2d_43">
      <g>
       <use xlink:href="#m2b4e925118" x="1051.307589" y="314.5" style="fill: #262626; stroke: #262626; stroke-width: 1.25"/>
      </g>
     </g>
     <g id="text_37">
      <!-- 20 -->
      <g style="fill: #262626" transform="translate(1040.809464 336.537422) scale(0.165 -0.165)">
       <use xlink:href="#DejaVuSans-32"/>
       <use xlink:href="#DejaVuSans-30" x="63.623047"/>
      </g>
     </g>
    </g>
    <g id="xtick_10">
     <g id="line2d_44">
      <g>
       <use xlink:href="#m2b4e925118" x="1198.127633" y="314.5" style="fill: #262626; stroke: #262626; stroke-width: 1.25"/>
      </g>
     </g>
     <g id="text_38">
      <!-- 30 -->
      <g style="fill: #262626" transform="translate(1187.629508 336.537422) scale(0.165 -0.165)">
       <use xlink:href="#DejaVuSans-33"/>
       <use xlink:href="#DejaVuSans-30" x="63.623047"/>
      </g>
     </g>
    </g>
    <g id="xtick_11">
     <g id="line2d_45">
      <g>
       <use xlink:href="#m2b4e925118" x="1344.947677" y="314.5" style="fill: #262626; stroke: #262626; stroke-width: 1.25"/>
      </g>
     </g>
     <g id="text_39">
      <!-- 40 -->
      <g style="fill: #262626" transform="translate(1334.449552 336.537422) scale(0.165 -0.165)">
       <use xlink:href="#DejaVuSans-34"/>
       <use xlink:href="#DejaVuSans-30" x="63.623047"/>
      </g>
     </g>
    </g>
   </g>
   <g id="matplotlib.axis_4"/>
   <g id="patch_27">
    <path d="M 757.6675 44.6276 
L 889.80554 44.6276 
L 889.80554 88.6884 
L 757.6675 88.6884 
z
" clip-path="url(#pe7ca8c90e2)" style="fill: #5875a4; stroke: #ffffff; stroke-linejoin: miter"/>
   </g>
   <g id="patch_28">
    <path d="M 757.6675 99.7036 
L 1021.94358 99.7036 
L 1021.94358 143.7644 
L 757.6675 143.7644 
z
" clip-path="url(#pe7ca8c90e2)" style="fill: #5875a4; stroke: #ffffff; stroke-linejoin: miter"/>
   </g>
   <g id="patch_29">
    <path d="M 757.6675 154.7796 
L 1036.625584 154.7796 
L 1036.625584 198.8404 
L 757.6675 198.8404 
z
" clip-path="url(#pe7ca8c90e2)" style="fill: #5875a4; stroke: #ffffff; stroke-linejoin: miter"/>
   </g>
   <g id="patch_30">
    <path d="M 757.6675 209.8556 
L 1183.445628 209.8556 
L 1183.445628 253.9164 
L 757.6675 253.9164 
z
" clip-path="url(#pe7ca8c90e2)" style="fill: #5875a4; stroke: #ffffff; stroke-linejoin: miter"/>
   </g>
   <g id="patch_31">
    <path d="M 757.6675 264.9316 
L 1388.99369 264.9316 
L 1388.99369 308.9924 
L 757.6675 308.9924 
z
" clip-path="url(#pe7ca8c90e2)" style="fill: #5875a4; stroke: #ffffff; stroke-linejoin: miter"/>
   </g>
   <g id="line2d_46">
    <path clip-path="url(#pe7ca8c90e2)" style="fill: none; stroke: #424242; stroke-width: 2.25; stroke-linecap: round"/>
   </g>
   <g id="line2d_47">
    <path clip-path="url(#pe7ca8c90e2)" style="fill: none; stroke: #424242; stroke-width: 2.25; stroke-linecap: round"/>
   </g>
   <g id="line2d_48">
    <path clip-path="url(#pe7ca8c90e2)" style="fill: none; stroke: #424242; stroke-width: 2.25; stroke-linecap: round"/>
   </g>
   <g id="line2d_49">
    <path clip-path="url(#pe7ca8c90e2)" style="fill: none; stroke: #424242; stroke-width: 2.25; stroke-linecap: round"/>
   </g>
   <g id="line2d_50">
    <path clip-path="url(#pe7ca8c90e2)" style="fill: none; stroke: #424242; stroke-width: 2.25; stroke-linecap: round"/>
   </g>
   <g id="patch_32">
    <path d="M 757.6675 314.5 
L 757.6675 39.12 
" style="fill: none; stroke: #262626; stroke-width: 1.25; stroke-linejoin: miter; stroke-linecap: square"/>
   </g>
   <g id="patch_33">
    <path d="M 757.6675 314.5 
L 1420.56 314.5 
" style="fill: none; stroke: #262626; stroke-width: 1.25; stroke-linejoin: miter; stroke-linecap: square"/>
   </g>
   <g id="text_40">
    <!-- 4.6% -->
    <g style="fill: #ffffff" transform="translate(836.7361 66.658) scale(0.18 -0.18)">
     <defs>
      <path id="DejaVuSans-2e" d="M 684 794 
L 1344 794 
L 1344 0 
L 684 0 
L 684 794 
z
" transform="scale(0.015625)"/>
      <path id="DejaVuSans-25" d="M 4653 2053 
Q 4381 2053 4226 1822 
Q 4072 1591 4072 1178 
Q 4072 772 4226 539 
Q 4381 306 4653 306 
Q 4919 306 5073 539 
Q 5228 772 5228 1178 
Q 5228 1588 5073 1820 
Q 4919 2053 4653 2053 
z
M 4653 2450 
Q 5147 2450 5437 2106 
Q 5728 1763 5728 1178 
Q 5728 594 5436 251 
Q 5144 -91 4653 -91 
Q 4153 -91 3862 251 
Q 3572 594 3572 1178 
Q 3572 1766 3864 2108 
Q 4156 2450 4653 2450 
z
M 1428 4353 
Q 1159 4353 1004 4120 
Q 850 3888 850 3481 
Q 850 3069 1003 2837 
Q 1156 2606 1428 2606 
Q 1700 2606 1854 2837 
Q 2009 3069 2009 3481 
Q 2009 3884 1853 4118 
Q 1697 4353 1428 4353 
z
M 4250 4750 
L 4750 4750 
L 1831 -91 
L 1331 -91 
L 4250 4750 
z
M 1428 4750 
Q 1922 4750 2215 4408 
Q 2509 4066 2509 3481 
Q 2509 2891 2217 2550 
Q 1925 2209 1428 2209 
Q 931 2209 642 2551 
Q 353 2894 353 3481 
Q 353 4063 643 4406 
Q 934 4750 1428 4750 
z
" transform="scale(0.015625)"/>
     </defs>
     <use xlink:href="#DejaVuSans-34"/>
     <use xlink:href="#DejaVuSans-2e" x="63.623047"/>
     <use xlink:href="#DejaVuSans-36" x="95.410156"/>
     <use xlink:href="#DejaVuSans-25" x="159.033203"/>
    </g>
   </g>
   <g id="text_41">
    <!-- 9.1% -->
    <g style="fill: #ffffff" transform="translate(968.87414 121.734) scale(0.18 -0.18)">
     <defs>
      <path id="DejaVuSans-39" d="M 703 97 
L 703 672 
Q 941 559 1184 500 
Q 1428 441 1663 441 
Q 2288 441 2617 861 
Q 2947 1281 2994 2138 
Q 2813 1869 2534 1725 
Q 2256 1581 1919 1581 
Q 1219 1581 811 2004 
Q 403 2428 403 3163 
Q 403 3881 828 4315 
Q 1253 4750 1959 4750 
Q 2769 4750 3195 4129 
Q 3622 3509 3622 2328 
Q 3622 1225 3098 567 
Q 2575 -91 1691 -91 
Q 1453 -91 1209 -44 
Q 966 3 703 97 
z
M 1959 2075 
Q 2384 2075 2632 2365 
Q 2881 2656 2881 3163 
Q 2881 3666 2632 3958 
Q 2384 4250 1959 4250 
Q 1534 4250 1286 3958 
Q 1038 3666 1038 3163 
Q 1038 2656 1286 2365 
Q 1534 2075 1959 2075 
z
" transform="scale(0.015625)"/>
     </defs>
     <use xlink:href="#DejaVuSans-39"/>
     <use xlink:href="#DejaVuSans-2e" x="63.623047"/>
     <use xlink:href="#DejaVuSans-31" x="95.410156"/>
     <use xlink:href="#DejaVuSans-25" x="159.033203"/>
    </g>
   </g>
   <g id="text_42">
    <!-- 9.6% -->
    <g style="fill: #ffffff" transform="translate(983.556144 176.81) scale(0.18 -0.18)">
     <use xlink:href="#DejaVuSans-39"/>
     <use xlink:href="#DejaVuSans-2e" x="63.623047"/>
     <use xlink:href="#DejaVuSans-36" x="95.410156"/>
     <use xlink:href="#DejaVuSans-25" x="159.033203"/>
    </g>
   </g>
   <g id="text_43">
    <!-- 14.7% -->
    <g style="fill: #ffffff" transform="translate(1118.923689 231.886) scale(0.18 -0.18)">
     <use xlink:href="#DejaVuSans-31"/>
     <use xlink:href="#DejaVuSans-34" x="63.623047"/>
     <use xlink:href="#DejaVuSans-2e" x="127.246094"/>
     <use xlink:href="#DejaVuSans-37" x="159.033203"/>
     <use xlink:href="#DejaVuSans-25" x="222.65625"/>
    </g>
   </g>
   <g id="text_44">
    <!-- 21.8% -->
    <g style="fill: #ffffff" transform="translate(1324.471751 286.962) scale(0.18 -0.18)">
     <use xlink:href="#DejaVuSans-32"/>
     <use xlink:href="#DejaVuSans-31" x="63.623047"/>
     <use xlink:href="#DejaVuSans-2e" x="127.246094"/>
     <use xlink:href="#DejaVuSans-38" x="159.033203"/>
     <use xlink:href="#DejaVuSans-25" x="222.65625"/>
    </g>
   </g>
   <g id="text_45">
    <!-- No. of occurances among UCYN-A imported sequences -->
    <g style="fill: #262626" transform="translate(842.754219 33.12) scale(0.18 -0.18)">
     <defs>
      <path id="DejaVuSans-4e" d="M 628 4666 
L 1478 4666 
L 3547 763 
L 3547 4666 
L 4159 4666 
L 4159 0 
L 3309 0 
L 1241 3903 
L 1241 0 
L 628 0 
L 628 4666 
z
" transform="scale(0.015625)"/>
      <path id="DejaVuSans-67" d="M 2906 1791 
Q 2906 2416 2648 2759 
Q 2391 3103 1925 3103 
Q 1463 3103 1205 2759 
Q 947 2416 947 1791 
Q 947 1169 1205 825 
Q 1463 481 1925 481 
Q 2391 481 2648 825 
Q 2906 1169 2906 1791 
z
M 3481 434 
Q 3481 -459 3084 -895 
Q 2688 -1331 1869 -1331 
Q 1566 -1331 1297 -1286 
Q 1028 -1241 775 -1147 
L 775 -588 
Q 1028 -725 1275 -790 
Q 1522 -856 1778 -856 
Q 2344 -856 2625 -561 
Q 2906 -266 2906 331 
L 2906 616 
Q 2728 306 2450 153 
Q 2172 0 1784 0 
Q 1141 0 747 490 
Q 353 981 353 1791 
Q 353 2603 747 3093 
Q 1141 3584 1784 3584 
Q 2172 3584 2450 3431 
Q 2728 3278 2906 2969 
L 2906 3500 
L 3481 3500 
L 3481 434 
z
" transform="scale(0.015625)"/>
      <path id="DejaVuSans-55" d="M 556 4666 
L 1191 4666 
L 1191 1831 
Q 1191 1081 1462 751 
Q 1734 422 2344 422 
Q 2950 422 3222 751 
Q 3494 1081 3494 1831 
L 3494 4666 
L 4128 4666 
L 4128 1753 
Q 4128 841 3676 375 
Q 3225 -91 2344 -91 
Q 1459 -91 1007 375 
Q 556 841 556 1753 
L 556 4666 
z
" transform="scale(0.015625)"/>
      <path id="DejaVuSans-43" d="M 4122 4306 
L 4122 3641 
Q 3803 3938 3442 4084 
Q 3081 4231 2675 4231 
Q 1875 4231 1450 3742 
Q 1025 3253 1025 2328 
Q 1025 1406 1450 917 
Q 1875 428 2675 428 
Q 3081 428 3442 575 
Q 3803 722 4122 1019 
L 4122 359 
Q 3791 134 3420 21 
Q 3050 -91 2638 -91 
Q 1578 -91 968 557 
Q 359 1206 359 2328 
Q 359 3453 968 4101 
Q 1578 4750 2638 4750 
Q 3056 4750 3426 4639 
Q 3797 4528 4122 4306 
z
" transform="scale(0.015625)"/>
      <path id="DejaVuSans-59" d="M -13 4666 
L 666 4666 
L 1959 2747 
L 3244 4666 
L 3922 4666 
L 2272 2222 
L 2272 0 
L 1638 0 
L 1638 2222 
L -13 4666 
z
" transform="scale(0.015625)"/>
      <path id="DejaVuSans-2d" d="M 313 2009 
L 1997 2009 
L 1997 1497 
L 313 1497 
L 313 2009 
z
" transform="scale(0.015625)"/>
      <path id="DejaVuSans-41" d="M 2188 4044 
L 1331 1722 
L 3047 1722 
L 2188 4044 
z
M 1831 4666 
L 2547 4666 
L 4325 0 
L 3669 0 
L 3244 1197 
L 1141 1197 
L 716 0 
L 50 0 
L 1831 4666 
z
" transform="scale(0.015625)"/>
      <path id="DejaVuSans-64" d="M 2906 2969 
L 2906 4863 
L 3481 4863 
L 3481 0 
L 2906 0 
L 2906 525 
Q 2725 213 2448 61 
Q 2172 -91 1784 -91 
Q 1150 -91 751 415 
Q 353 922 353 1747 
Q 353 2572 751 3078 
Q 1150 3584 1784 3584 
Q 2172 3584 2448 3432 
Q 2725 3281 2906 2969 
z
M 947 1747 
Q 947 1113 1208 752 
Q 1469 391 1925 391 
Q 2381 391 2643 752 
Q 2906 1113 2906 1747 
Q 2906 2381 2643 2742 
Q 2381 3103 1925 3103 
Q 1469 3103 1208 2742 
Q 947 2381 947 1747 
z
" transform="scale(0.015625)"/>
      <path id="DejaVuSans-71" d="M 947 1747 
Q 947 1113 1208 752 
Q 1469 391 1925 391 
Q 2381 391 2643 752 
Q 2906 1113 2906 1747 
Q 2906 2381 2643 2742 
Q 2381 3103 1925 3103 
Q 1469 3103 1208 2742 
Q 947 2381 947 1747 
z
M 2906 525 
Q 2725 213 2448 61 
Q 2172 -91 1784 -91 
Q 1150 -91 751 415 
Q 353 922 353 1747 
Q 353 2572 751 3078 
Q 1150 3584 1784 3584 
Q 2172 3584 2448 3432 
Q 2725 3281 2906 2969 
L 2906 3500 
L 3481 3500 
L 3481 -1331 
L 2906 -1331 
L 2906 525 
z
" transform="scale(0.015625)"/>
     </defs>
     <use xlink:href="#DejaVuSans-4e"/>
     <use xlink:href="#DejaVuSans-6f" x="74.804688"/>
     <use xlink:href="#DejaVuSans-2e" x="134.236328"/>
     <use xlink:href="#DejaVuSans-20" x="166.023438"/>
     <use xlink:href="#DejaVuSans-6f" x="197.810547"/>
     <use xlink:href="#DejaVuSans-66" x="258.992188"/>
     <use xlink:href="#DejaVuSans-20" x="294.197266"/>
     <use xlink:href="#DejaVuSans-6f" x="325.984375"/>
     <use xlink:href="#DejaVuSans-63" x="387.166016"/>
     <use xlink:href="#DejaVuSans-63" x="442.146484"/>
     <use xlink:href="#DejaVuSans-75" x="497.126953"/>
     <use xlink:href="#DejaVuSans-72" x="560.505859"/>
     <use xlink:href="#DejaVuSans-61" x="601.619141"/>
     <use xlink:href="#DejaVuSans-6e" x="662.898438"/>
     <use xlink:href="#DejaVuSans-63" x="726.277344"/>
     <use xlink:href="#DejaVuSans-65" x="781.257812"/>
     <use xlink:href="#DejaVuSans-73" x="842.78125"/>
     <use xlink:href="#DejaVuSans-20" x="894.880859"/>
     <use xlink:href="#DejaVuSans-61" x="926.667969"/>
     <use xlink:href="#DejaVuSans-6d" x="987.947266"/>
     <use xlink:href="#DejaVuSans-6f" x="1085.359375"/>
     <use xlink:href="#DejaVuSans-6e" x="1146.541016"/>
     <use xlink:href="#DejaVuSans-67" x="1209.919922"/>
     <use xlink:href="#DejaVuSans-20" x="1273.396484"/>
     <use xlink:href="#DejaVuSans-55" x="1305.183594"/>
     <use xlink:href="#DejaVuSans-43" x="1378.376953"/>
     <use xlink:href="#DejaVuSans-59" x="1446.451172"/>
     <use xlink:href="#DejaVuSans-4e" x="1507.535156"/>
     <use xlink:href="#DejaVuSans-2d" x="1582.339844"/>
     <use xlink:href="#DejaVuSans-41" x="1616.173828"/>
     <use xlink:href="#DejaVuSans-20" x="1684.582031"/>
     <use xlink:href="#DejaVuSans-69" x="1716.369141"/>
     <use xlink:href="#DejaVuSans-6d" x="1744.152344"/>
     <use xlink:href="#DejaVuSans-70" x="1841.564453"/>
     <use xlink:href="#DejaVuSans-6f" x="1905.041016"/>
     <use xlink:href="#DejaVuSans-72" x="1966.222656"/>
     <use xlink:href="#DejaVuSans-74" x="2007.335938"/>
     <use xlink:href="#DejaVuSans-65" x="2046.544922"/>
     <use xlink:href="#DejaVuSans-64" x="2108.068359"/>
     <use xlink:href="#DejaVuSans-20" x="2171.544922"/>
     <use xlink:href="#DejaVuSans-73" x="2203.332031"/>
     <use xlink:href="#DejaVuSans-65" x="2255.431641"/>
     <use xlink:href="#DejaVuSans-71" x="2316.955078"/>
     <use xlink:href="#DejaVuSans-75" x="2380.431641"/>
     <use xlink:href="#DejaVuSans-65" x="2443.810547"/>
     <use xlink:href="#DejaVuSans-6e" x="2505.333984"/>
     <use xlink:href="#DejaVuSans-63" x="2568.712891"/>
     <use xlink:href="#DejaVuSans-65" x="2623.693359"/>
     <use xlink:href="#DejaVuSans-73" x="2685.216797"/>
    </g>
   </g>
  </g>
 </g>
 <defs>
  <clipPath id="pa0a4593085">
   <rect x="70.07" y="39.12" width="662.8925" height="275.38"/>
  </clipPath>
  <clipPath id="pe7ca8c90e2">
   <rect x="757.6675" y="39.12" width="662.8925" height="275.38"/>
  </clipPath>
 </defs>
</svg>
